<?xml version="1.0" encoding="utf-8"?>
<!-- Generator: Adobe Illustrator 16.0.3, SVG Export Plug-In . SVG Version: 6.00 Build 0)  -->
<!DOCTYPE svg PUBLIC "-//W3C//DTD SVG 1.1//EN" "http://www.w3.org/Graphics/SVG/1.1/DTD/svg11.dtd">
<svg version="1.1" id="圖層_1" xmlns="http://www.w3.org/2000/svg" xmlns:xlink="http://www.w3.org/1999/xlink" x="0px" y="0px"
	 width="50px" height="600px" viewBox="0 0 50 600" enable-background="new 0 0 50 600" xml:space="preserve">
<g>
	<g>
		<rect fill="none" width="50" height="50"/>
	</g>
	<g>
		<path fill="#FCC80D" d="M17.498,35.761c-1.851,0-3.353-1.502-3.353-3.355c0-1.85,1.501-3.352,3.353-3.352s3.356,1.502,3.356,3.352
			C20.854,34.261,19.349,35.761,17.498,35.761z M28.865,33.523c0,0.557-0.217,1.076-0.611,1.471
			c-0.395,0.391-0.92,0.607-1.479,0.607c-1.15,0-2.083-0.932-2.083-2.078l-0.021-1.164c0-3.725-3.027-6.75-6.751-6.75h-1.634
			c-1.158,0-2.102-0.942-2.102-2.105c0-1.162,0.944-2.105,2.102-2.105h0.947h0.688c5.854,0,10.66,4.583,10.934,10.436
			c0.008,0.041,0.014,0.072,0.014,0.111l0.005,0.205c0.007,0.066,0.011,0.137,0.011,0.209L28.865,33.523z M35.854,32.472
			c0,0.004,0,0.008,0,0.014v0.984c0,1.053-0.861,1.908-1.923,1.908c-1.061,0-1.922-0.855-1.922-1.908v-1.404
			c-0.216-7.67-6.446-13.854-14.14-13.989c-0.01,0-0.025,0.004-0.036,0.004h-1.776c-1.055,0-1.91-0.859-1.91-1.921
			s0.854-1.921,1.91-1.921h1.777c0.046,0,0.087,0.011,0.132,0.014c9.495,0.18,17.236,7.649,17.842,17.036
			c0.032,0.133,0.046,0.262,0.046,0.402V32.472z"/>
	</g>
</g>
<g>
	<g>
		<rect y="50" fill="none" width="50" height="50"/>
	</g>
	<g>
		<path fill-rule="evenodd" clip-rule="evenodd" fill="#FCC80D" d="M42.964,75c0,2.453-1.415,4.533-3.521,5.358v2.689
			c0,0.635-0.515,1.149-1.147,1.149H11.708c-0.636,0-1.15-0.515-1.15-1.149v-2.689C8.452,79.533,7.036,77.453,7.036,75
			c0-2.454,1.416-4.532,3.521-5.357v-2.69c0-0.636,0.514-1.149,1.15-1.149h26.587c0.633,0,1.147,0.514,1.147,1.149v2.69
			C41.549,70.468,42.964,72.546,42.964,75z"/>
	</g>
</g>
<g>
	<g>
		<rect y="100" fill="none" width="50" height="50"/>
	</g>
	<g>
		<path fill-rule="evenodd" clip-rule="evenodd" fill="#FCC80D" d="M19.417,119.867c0-3.064,2.5-5.549,5.583-5.549
			c3.084,0,5.584,2.484,5.584,5.549s-2.5,5.549-5.584,5.549C21.918,125.416,19.417,122.932,19.417,119.867z M15.508,120.56
			c0,2.322,2.834,7.214,2.834,7.214L25,138.871l6.276-11.098c0,0,3.215-4.928,3.215-7.214c0-5.209-4.249-9.432-9.491-9.432
			C19.758,111.128,15.508,115.351,15.508,120.56z"/>
	</g>
</g>
<g>
	<g>
		<rect y="200" fill="none" width="50" height="50"/>
	</g>
	<g>
		<path fill-rule="evenodd" clip-rule="evenodd" fill="#444444" d="M19.418,219.868c0-3.064,2.5-5.549,5.583-5.549
			c3.083,0,5.584,2.484,5.584,5.549s-2.501,5.549-5.584,5.549C21.918,225.417,19.418,222.933,19.418,219.868z M15.509,220.561
			c0,2.322,2.834,7.214,2.834,7.214L25,238.872l6.277-11.098c0,0,3.215-4.928,3.215-7.214c0-5.209-4.25-9.432-9.492-9.432
			S15.509,215.352,15.509,220.561z"/>
	</g>
</g>
<g>
	<g>
		<rect y="150" fill="none" width="50" height="50"/>
	</g>
	<g>
		<path fill-rule="evenodd" clip-rule="evenodd" fill="#FCC80D" d="M11.6,166.128v19.729c0,0,2.667-1.923,6.452-1.923
			c3.784,0,6.452,1.923,6.452,1.923v-19.481c0,0-2.668-2.234-6.452-2.234C14.267,164.142,11.6,166.128,11.6,166.128z"/>
		<path fill-rule="evenodd" clip-rule="evenodd" fill="#FCC80D" d="M25.496,166.128v19.729c0,0,2.668-1.923,6.452-1.923
			s6.453,1.923,6.453,1.923v-19.481c0,0-2.669-2.234-6.453-2.234S25.496,166.128,25.496,166.128z"/>
	</g>
</g>
<g>
	<g>
		<rect y="250" fill="none" width="50" height="50"/>
	</g>
	<g>
		<path fill="#444444" d="M17.115,263.302c-1.09,0.816-4.175,5.242,1.599,15.271c6.083,10.567,11.873,10.128,13.033,9.412
			l-4.102-6.928c-0.969,0.57-1.787-0.369-3.294-2.41c-0.026-0.016-2.942-4.921-2.952-4.983c-0.602-1.318-1.089-2.665-0.074-3.264
			L17.115,263.302z"/>
		<path fill="#444444" d="M34.249,286.526c0.448-0.268,0.554-0.821,0.313-1.231l0.001-0.005c0,0-3.203-5.396-3.205-5.4
			c-0.254-0.427-0.799-0.561-1.225-0.313l-1.962,1.16l4.112,6.947c0,0,1.963-1.155,1.961-1.157L34.249,286.526z"/>
		<path fill="#444444" d="M23.822,268.924c0.451-0.268,0.557-0.819,0.316-1.227l0.002-0.006c0,0-3.296-5.554-3.296-5.556
			c-0.255-0.43-0.801-0.562-1.225-0.313l-1.963,1.161l4.204,7.101c0,0,1.961-1.154,1.962-1.157V268.924z"/>
	</g>
</g>
<g>
	<g>
		<rect y="300" fill="none" width="50" height="50"/>
	</g>
	<g>
		<path fill="#444444" d="M24.999,311.274c-7.579,0-13.726,6.145-13.726,13.726s6.146,13.726,13.726,13.726
			c7.581,0,13.727-6.145,13.727-13.726S32.58,311.274,24.999,311.274z M24.889,336.115c-6.122,0-11.086-4.964-11.086-11.087
			c0-6.122,4.964-11.086,11.086-11.086c6.123,0,11.087,4.964,11.087,11.086C35.976,331.151,31.012,336.115,24.889,336.115z"/>
		<path fill-rule="evenodd" clip-rule="evenodd" fill="#444444" d="M28.093,327.756h-4.191c-0.577,0-1.044-0.468-1.044-1.045v-6.357
			c0-0.577,0.467-1.045,1.044-1.045s1.046,0.468,1.046,1.045v5.313h3.146c0.577,0,1.045,0.468,1.045,1.045
			S28.67,327.756,28.093,327.756z"/>
	</g>
</g>
<g>
	<g>
		<rect y="400" fill="none" width="50" height="50"/>
	</g>
	<g>
		<path fill-rule="evenodd" clip-rule="evenodd" fill="#929AA8" d="M33.951,441.114H16.046c-1.978,0-3.581-1.604-3.581-3.581V423.21
			c0-1.979,1.604-3.582,3.581-3.582h1.194v-2.983c0-4.286,3.473-7.759,7.758-7.759c4.285,0,7.759,3.473,7.759,7.759v2.983h1.193
			c1.979,0,3.582,1.604,3.582,3.582v14.323C37.533,439.511,35.93,441.114,33.951,441.114z M24.999,412.466
			c2.308,0,4.177,1.871,4.177,4.179v2.983c-2.307,0-1.869,0-4.177,0c-2.307,0-2.188,0-4.178,0v-2.983
			C20.821,414.337,22.692,412.466,24.999,412.466z M24.999,427.983c1.648,0,2.984,1.336,2.984,2.984s-1.336,2.984-2.984,2.984
			c-1.648,0-2.984-1.336-2.984-2.984S23.35,427.983,24.999,427.983z"/>
	</g>
</g>
<g>
	<g>
		<rect y="450" fill="none" width="50" height="50"/>
	</g>
	<g>
		<path fill-rule="evenodd" clip-rule="evenodd" fill="#929AA8" d="M13.769,475.858l4.579-4.579h-2.684
			c0.025-0.065,0.05-0.133,0.076-0.197c1.591-4.032,5.521-6.886,10.118-6.886c6.006,0,10.874,4.869,10.874,10.874
			c0,6.007-4.867,10.874-10.874,10.874c-4.417,0-8.219-2.635-9.921-6.417c-0.017-0.035-0.027-0.074-0.044-0.109l-2.916,2.897
			c0.02,0.034,0.033,0.072,0.053,0.107c0.004,0.007,0.009,0.015,0.013,0.022c2.574,4.444,7.381,7.435,12.887,7.435
			c8.218,0,14.88-6.662,14.88-14.881c0-8.218-6.662-14.879-14.88-14.879c-6.869,0-12.651,4.654-14.364,10.981
			c-0.016,0.058-0.02,0.12-0.035,0.178H9.19L13.769,475.858z"/>
	</g>
</g>
<g>
	<g>
		<rect y="350" fill="none" width="50" height="50"/>
	</g>
	<g>
		<path fill="#929AA8" d="M28.494,380.509c-0.697-0.112-0.715-2.029-0.715-2.029s2.049-2.026,2.496-4.752
			c1.199,0,1.941-2.898,0.74-3.918c0.049-1.074,1.543-8.427-6.016-8.427s-6.066,7.353-6.016,8.427
			c-1.201,1.02-0.459,3.918,0.741,3.918c0.446,2.726,2.495,4.752,2.495,4.752s-0.017,1.917-0.713,2.029
			c-2.245,0.355-10.628,4.054-10.628,8.108H25h14.122C39.121,384.563,30.738,380.864,28.494,380.509z"/>
	</g>
</g>
<g>
	<g>
		<rect y="500" fill="none" width="50" height="50"/>
	</g>
	<path fill="#8B5C06" d="M30.809,524.991l-13.073,13.073c-0.418,0.418-0.418,1.096,0,1.512l1.639,1.64
		c0.417,0.418,1.095,0.418,1.512,0l15.378-15.379c0.22-0.218,0.315-0.508,0.306-0.794c0.037-0.314-0.049-0.642-0.29-0.883
		l-15.376-15.376c-0.417-0.42-1.095-0.42-1.514,0l-1.637,1.638c-0.419,0.418-0.419,1.095,0,1.513L30.809,524.991z"/>
</g>
<g>
	<g>
		<rect y="550" fill="none" width="50" height="50"/>
	</g>
	<path fill="#8B5C06" d="M19.191,574.991l13.074,13.073c0.418,0.418,0.418,1.096,0,1.512l-1.64,1.64
		c-0.417,0.418-1.095,0.418-1.513,0l-15.377-15.379c-0.219-0.218-0.316-0.508-0.306-0.794c-0.038-0.314,0.048-0.642,0.29-0.883
		l15.376-15.376c0.417-0.42,1.095-0.42,1.514,0l1.637,1.638c0.419,0.418,0.419,1.095,0,1.513L19.191,574.991z"/>
</g>
</svg>
